<svg width="517" height="457" viewBox="0 0 517 457" fill="none" xmlns="http://www.w3.org/2000/svg">
<path d="M39.49 441.47L0 0L289.04 297.02L39.49 441.47ZM12.93 28.15L48.37 424.35L272.34 294.71L12.93 28.15Z" fill="black"/>
<path d="M288.57 297.32L279.76 291.86L386.63 136.49C384.65 136.45 382.69 136.44 380.77 136.44C318.49 136.44 255.5 155.9 202.85 188.57L194.21 180.51C248.5 146.82 316.56 126.07 380.77 126.07C385.69 126.07 390.8 126.18 395.98 126.41L404.82 126.79L288.57 297.32Z" fill="black"/>
<path d="M49.08 433.47L38.78 432.34C44.05 384.05 59.18 338.32 83.73 296.42C107.67 255.56 139.2 220.62 177.44 192.56L183.57 200.92C108.2 256.22 59.18 340.98 49.08 433.47Z" fill="black"/>
<path d="M248.28 456.24L237.88 395.28H250.18L253.16 419.61C253.97 426.57 254.52 433.54 255.24 440.95H255.51C256.32 433.44 257.68 426.84 258.95 419.52L263.29 395.28H272.88L276.95 419.34C278.04 426.21 279.12 433 279.84 440.95H280.02C280.83 432.99 281.56 426.48 282.37 419.43L285.35 395.28H296.93L286.17 456.24H273.96L270.34 436.25C269.35 430.64 268.44 423.68 267.63 416.26H267.45C266.36 423.59 265.37 430.37 264.1 436.34L260.03 456.24H248.28Z" fill="black"/>
<path d="M333.29 395.29V456.25H321.44V395.29H333.29Z" fill="black"/>
<path d="M361.96 456.24V395.28H372.81L382.22 419.16C384.12 423.86 387.01 431.73 388.73 436.98H388.91C388.55 430.56 387.73 419.98 387.73 408.76V395.28H398.13V456.24H387.28L377.96 433.09C375.88 427.94 373.17 420.16 371.72 414.73H371.54C371.9 420.88 372.35 430.29 372.35 442.59V456.25H361.96V456.24Z" fill="black"/>
<path d="M460.54 454.61C457.92 455.7 452.4 456.78 447.97 456.78C440.92 456.78 435.58 454.79 431.6 450.72C426.35 445.66 423.55 436.61 423.73 426.12C424 403.96 436.57 394.74 449.69 394.74C454.3 394.74 457.65 395.64 459.55 396.55L457.56 406.77C455.75 405.87 453.49 405.41 450.6 405.41C442.46 405.41 436.04 410.93 436.04 426.75C436.04 441.4 441.74 446.74 447.34 446.74C448.43 446.74 449.24 446.65 449.69 446.47V431.73H444.17V422.05H460.54V454.61Z" fill="black"/>
<path d="M486.13 444.12C488.57 445.48 492.82 446.47 496.17 446.47C501.69 446.47 504.49 443.58 504.49 439.6C504.49 435.17 501.78 433 496.62 429.65C488.3 424.59 485.13 418.16 485.13 412.65C485.13 402.88 491.64 394.74 504.3 394.74C508.37 394.74 512.17 395.83 513.89 396.91L511.99 407.13C510.27 406.05 507.65 405.05 504.3 405.05C499.24 405.05 496.79 408.13 496.79 411.38C496.79 415 498.6 416.9 505.11 420.88C513.25 425.76 516.14 431.91 516.14 438.33C516.14 449.45 507.91 456.78 496.06 456.78C491.18 456.78 486.47 455.51 484.39 454.34L486.13 444.12Z" fill="black"/>
<path d="M349.92 313.12H355V353.28H367.46V357.57H349.92V313.12Z" fill="black"/>
<path d="M413.49 335.01C413.49 351.69 407.82 358.09 400.63 358.09C393.24 358.09 388.3 350.24 388.3 335.27C388.3 320.56 393.64 312.58 401.36 312.58C408.94 312.59 413.49 320.84 413.49 335.01ZM393.57 335.34C393.57 344.51 395.35 353.61 401.02 353.61C406.69 353.61 408.21 343.92 408.21 335.21C408.21 326.9 406.69 317.07 400.96 317.07C395.35 317.08 393.57 326.31 393.57 335.34Z" fill="black"/>
<path d="M461.69 356.45C459.84 357.24 456.61 357.97 453.84 357.97C449.95 357.97 446.32 356.92 443.35 353.68C440.12 350.25 437.94 344.12 438.01 335.94C438.08 318.6 446.91 312.73 454.76 312.73C457.53 312.73 459.71 313.26 461.03 313.98L459.91 318.33C458.72 317.74 457.21 317.28 454.83 317.28C449.29 317.28 443.29 321.7 443.29 335.48C443.29 349.2 448.5 353.62 453.84 353.62C455.55 353.62 456.54 353.36 456.94 353.09V338.58H451.2V334.36H461.69V356.45Z" fill="black"/>
<path d="M512.27 335.01C512.27 351.69 506.6 358.09 499.41 358.09C492.02 358.09 487.08 350.24 487.08 335.27C487.08 320.56 492.42 312.58 500.14 312.58C507.72 312.59 512.27 320.84 512.27 335.01ZM492.35 335.34C492.35 344.51 494.13 353.61 499.8 353.61C505.47 353.61 506.99 343.92 506.99 335.21C506.99 326.9 505.47 317.07 499.74 317.07C494.13 317.08 492.35 326.31 492.35 335.34Z" fill="black"/>
</svg>
