<svg width="361" height="516" viewBox="0 0 361 516" fill="none" xmlns="http://www.w3.org/2000/svg">
<path d="M360.23 144.56C347.48 141.4 323.91 137.13 294.94 139.18C269.61 140.97 245.44 147.26 223.09 157.87C195.19 171.12 170.12 191.15 148.57 217.42C102.45 273.63 66.28 296.3 44.06 305.42C27.98 312.02 16.78 312.61 11.22 312.31V220.83H0V321.4L4.03 322.58C4.56 322.74 7.84 323.61 13.65 323.61C33.85 323.61 84.66 313 157.25 224.54C194.35 179.33 240.79 154.39 295.28 150.41C325.03 148.23 349.18 153.25 360.24 156.18V144.56H360.23Z" fill="black"/>
<path d="M11.3501 0H0.350098V221H11.3501V0Z" fill="black"/>
<path d="M183.71 295.18C176.9 303.48 166.5 314.45 159.84 321.73H175.75C181.25 315.58 186.82 309.07 192.38 302.29C247.79 234.76 316.03 230.46 360.24 237.11V225.77C313.31 219.06 241.86 224.3 183.71 295.18Z" fill="black"/>
<path d="M360.23 59.24C348.05 55.36 318.16 48.23 281 48.49C252.84 48.7 226.39 53.7299 202.4 63.4399C172.35 75.5899 146.16 96.9899 124.53 123.34C101.4 151.54 79.02 173.97 58.03 190.01L64.84 198.92C86.52 182.35 109.52 159.31 133.2 130.45C170.24 85.3099 219.86 60.2699 280.7 59.7099C320.53 59.3499 352.39 68.3799 360.22 71.0599V59.24H360.23Z" fill="black"/>
<path d="M6.54995 228.36L4.44995 217.34C15.28 215.28 33.36 208.87 58.04 190.01L64.8499 198.92C43.6399 215.13 24.03 225.04 6.54995 228.36Z" fill="black"/>
<path d="M91.01 448.89L83.27 403.53H92.42L94.64 421.64C95.25 426.82 95.65 432 96.19 437.52H96.39C97 431.93 98.01 427.02 98.95 421.57L102.18 403.53H109.31L112.34 421.43C113.15 426.55 113.96 431.59 114.49 437.52H114.62C115.23 431.6 115.76 426.75 116.37 421.5L118.59 403.53H127.2L119.19 448.89H110.1L107.41 434.02C106.67 429.85 106 424.66 105.39 419.14H105.26C104.45 424.59 103.71 429.64 102.77 434.08L99.74 448.89H91.01Z" fill="black"/>
<path d="M158.85 438.53L156.83 448.89H148.28L158.11 403.53H168.68L177.5 448.89H168.95L167 438.53H158.85ZM166.19 431.66L164.71 422.17C164.24 419.41 163.63 414.83 163.23 411.87H163.03C162.56 414.9 161.89 419.54 161.41 422.17L159.73 431.66H166.19Z" fill="black"/>
<path d="M208.11 448.89L198.01 403.53H207.77L211 423.12C211.74 428.03 212.68 433.55 213.29 438.87H213.42C214.03 433.49 214.77 428.03 215.57 422.92L218.67 403.54H228.36L218 448.9H208.11V448.89Z" fill="black"/>
<path d="M257.98 448.89V431.53L248.02 403.53H257.44L260.47 414.37C261.35 417.26 262.22 420.63 262.89 423.99H263.02C263.56 420.69 264.3 417.39 265.11 414.16L267.8 403.53H276.95L266.79 431.19V448.89H257.98Z" fill="black"/>
<path d="M92.28 466.81H97.77V510.27H111.26V514.91H92.28V466.81Z" fill="black"/>
<path d="M161.07 490.5C161.07 508.55 154.93 515.47 147.16 515.47C139.17 515.47 133.82 506.98 133.82 490.78C133.82 474.87 139.6 466.23 147.95 466.23C156.14 466.24 161.07 475.16 161.07 490.5ZM139.52 490.86C139.52 500.78 141.45 510.63 147.58 510.63C153.72 510.63 155.36 500.14 155.36 490.72C155.36 481.73 153.72 471.1 147.51 471.1C141.45 471.1 139.52 481.08 139.52 490.86Z" fill="black"/>
<path d="M213.22 513.69C211.22 514.55 207.73 515.33 204.73 515.33C200.52 515.33 196.6 514.19 193.38 510.69C189.88 506.98 187.53 500.34 187.6 491.5C187.67 472.73 197.23 466.38 205.72 466.38C208.72 466.38 211.07 466.95 212.5 467.74L211.29 472.45C210.01 471.81 208.36 471.31 205.8 471.31C199.81 471.31 193.31 476.09 193.31 491C193.31 505.84 198.95 510.62 204.73 510.62C206.58 510.62 207.66 510.34 208.08 510.05V494.35H201.87V489.78H213.22V513.69Z" fill="black"/>
<path d="M267.95 490.5C267.95 508.55 261.81 515.47 254.04 515.47C246.05 515.47 240.7 506.98 240.7 490.78C240.7 474.87 246.48 466.23 254.83 466.23C263.03 466.24 267.95 475.16 267.95 490.5ZM246.4 490.86C246.4 500.78 248.33 510.63 254.46 510.63C260.6 510.63 262.24 500.14 262.24 490.72C262.24 481.73 260.6 471.1 254.39 471.1C248.33 471.1 246.4 481.08 246.4 490.86Z" fill="black"/>
</svg>
