<svg width="368" height="560" viewBox="0 0 368 560" fill="none" xmlns="http://www.w3.org/2000/svg">
<path d="M147.22 0V411.95L0 312.05V326.55L159.22 434.59V22.54L355.22 154.47V304.02L191.22 194.02V438.27L203.22 425.27V216.52L367.22 326.52V148.08L147.22 0Z" fill="black"/>
<path d="M357.3 206.25L192.07 95.25V80.52L364.2 196.29L357.3 206.25Z" fill="black"/>
<path d="M357.3 263.75L192.07 152.75V138.02L364.2 253.79L357.3 263.75Z" fill="black"/>
<path d="M0 196.95V211.4L148.88 311.25L155.56 301.29L0 196.95Z" fill="black"/>
<path d="M0 254.45V268.9L148.88 368.75L155.56 358.79L0 254.45Z" fill="black"/>
<path d="M75.9101 546.11L73.3601 559.21H62.5601L74.9801 501.87H88.3401L99.4801 559.21H88.6801L86.2101 546.11H75.9101ZM85.1901 537.43L83.3201 525.44C82.7201 521.95 81.9601 516.17 81.4501 512.42H81.2001C80.6001 516.25 79.7501 522.12 79.1601 525.44L77.0301 537.43H85.1901Z" fill="black"/>
<path d="M136.23 502.72C139.72 502.04 144.14 501.61 148.4 501.61C154.52 501.61 160.05 502.55 163.71 505.86C167.2 509.01 168.3 512.84 168.3 517.77C168.3 523.89 165.24 529.42 159.45 532.06V532.23C163.36 533.85 165.32 537.42 166.43 543.63C167.54 550.01 169.07 557.07 170.09 559.2H158.44C157.67 557.58 156.4 551.8 155.55 545.42C154.53 538.36 152.74 536.32 149.09 536.32H147.39V559.2H136.25V502.72H136.23ZM147.37 527.74H149.41C154.26 527.74 156.98 523.83 156.98 518.81C156.98 513.88 155.02 510.47 150.09 510.3C149.07 510.3 147.96 510.38 147.37 510.64V527.74Z" fill="black"/>
<path d="M234.14 558.36C232.52 559.13 229.38 559.72 225.55 559.72C210.83 559.72 203.86 547.72 203.86 531.39C203.86 509.78 215.85 501.36 227 501.36C230.91 501.36 233.64 502.13 234.74 502.89L232.87 512.25C231.59 511.65 230.15 511.14 227.68 511.14C221.39 511.14 215.69 516.58 215.69 530.79C215.69 544.49 220.88 549.85 227.68 549.85C229.55 549.85 231.68 549.42 233.04 549L234.14 558.36Z" fill="black"/>
<path d="M281.86 501.87V524.84H293.51V501.87H304.65V559.21H293.51V535.22H281.86V559.21H270.72V501.87H281.86Z" fill="black"/>
</svg>
