<svg width="408" height="498" viewBox="0 0 408 498" fill="none" xmlns="http://www.w3.org/2000/svg">
<path d="M346.97 59.84C307.77 21.25 255.94 0 201.03 0H196V327.56H206.05V10.12C312.29 12.76 397.9 98.91 397.9 204.41C397.9 311.57 311.84 398.77 206.06 398.77C98.72 398.77 11.27 312.86 10.06 206.65H0C0.58 260.27 22.08 310.78 60.7 348.96C99.74 387.56 151.37 408.8 206.06 408.8C260.52 408.8 311.42 387.53 349.37 348.9C387.15 310.46 407.95 259.14 407.95 204.4C407.95 149.89 386.29 98.55 346.97 59.84Z" fill="black"/>
<path d="M299.25 110.74L295.69 107.18L156.25 246.84L156.51 6.41003L150.06 8.31003C123.07 16.25 98.4699 29.36 76.9299 47.27C56.6799 64.1 40.1599 84.38 27.6899 107.63H39.1899C62.8899 66.4 101.16 35.05 146.43 19.98L146.16 271.16L295.62 121.48C339.74 169.33 338.72 244.01 292.47 290.26C245.1 337.63 168.28 337.87 121.22 290.81C98.7799 268.37 86.1799 238.54 85.6099 206.64H75.5699C76.1399 241.22 89.7899 273.57 114.13 297.91C138.82 322.6 171.53 336.17 206.31 336.17C206.5 336.17 206.69 336.17 206.88 336.17C241.78 336.02 274.71 322.24 299.59 297.35C324.5 272.44 338.22 239.4 338.23 204.31C338.24 169.12 324.4 135.88 299.25 110.74Z" fill="black"/>
<path d="M29.1199 497.02C27.9699 497.56 25.7399 497.98 23.0299 497.98C12.5899 497.98 7.6499 489.47 7.6499 477.89C7.6499 462.57 16.1599 456.6 24.0599 456.6C26.8299 456.6 28.7599 457.14 29.5499 457.69L28.2199 464.33C27.3199 463.91 26.2899 463.55 24.5399 463.55C20.0799 463.55 16.0299 467.41 16.0299 477.48C16.0299 487.19 19.7099 490.99 24.5399 490.99C25.8699 490.99 27.3699 490.69 28.3399 490.39L29.1199 497.02Z" fill="black"/>
<path d="M59.9398 456.97V497.63H52.0398V456.97H59.9398Z" fill="black"/>
<path d="M85.5698 457.57C88.0398 457.09 91.1798 456.79 94.1998 456.79C98.5398 456.79 102.46 457.45 105.06 459.81C107.53 462.04 108.32 464.76 108.32 468.25C108.32 472.59 106.15 476.51 102.05 478.38V478.5C104.83 479.65 106.21 482.18 107 486.58C107.78 491.1 108.87 496.11 109.59 497.62H101.33C100.79 496.47 99.8798 492.37 99.2798 487.85C98.5598 482.84 97.2898 481.4 94.6998 481.4H93.4898V497.63H85.5898V457.57H85.5698ZM93.4698 475.3H94.9198C98.3598 475.3 100.29 472.53 100.29 468.97C100.29 465.47 98.8998 463.06 95.3998 462.94C94.6798 462.94 93.8898 463 93.4698 463.18V475.3Z" fill="black"/>
<path d="M151.98 497.02C150.83 497.56 148.6 497.98 145.89 497.98C135.45 497.98 130.51 489.47 130.51 477.89C130.51 462.57 139.02 456.6 146.92 456.6C149.7 456.6 151.63 457.14 152.41 457.69L151.08 464.33C150.18 463.91 149.15 463.55 147.4 463.55C142.94 463.55 138.89 467.41 138.89 477.48C138.89 487.19 142.57 490.99 147.4 490.99C148.73 490.99 150.24 490.69 151.2 490.39L151.98 497.02Z" fill="black"/>
<path d="M174.9 456.97H182.8V490.93H193.18V497.63H174.9V456.97Z" fill="black"/>
<path d="M233.53 479.77H224.3V490.75H234.74V497.63H216.4V456.97H234.07V463.85H224.3V473.2H233.53V479.77Z" fill="black"/>
<path d="M263.63 461.13H256.21V456.97H275.69V461.13H268.27V497.63H263.62V461.13H263.63Z" fill="black"/>
<path d="M303.44 456.97V497.63H298.79V456.97H303.44Z" fill="black"/>
<path d="M353.98 480.13C353.68 474.76 353.38 468.79 353.56 464.2H353.32C352.42 468.72 351.33 473.55 350.06 478.32L345.11 497.38H342.09L337.38 479.1C335.99 473.91 334.85 468.9 334 464.2H333.82C333.88 468.97 333.58 474.64 333.34 480.43L332.56 497.62H328.4L330.81 456.96H335.88L340.59 475.54C341.98 480.91 343 484.89 343.85 489.54H344.03C344.81 484.89 345.72 481.03 347.05 475.54L351.63 456.96H356.82L359.17 497.62H354.83L353.98 480.13Z" fill="black"/>
<path d="M398.92 478.32H388.73V493.58H400.31V497.62H384.08V456.96H399.58V461H388.72V474.39H398.91V478.32H398.92Z" fill="black"/>
</svg>
