<svg width="389" height="393" viewBox="0 0 389 393" fill="none" xmlns="http://www.w3.org/2000/svg">
<path d="M48.41 0V301.02H12.41V1H0.410034V313.02H60.41V12H376.41V301.02H349.86L216.22 70.72L85.35 313.02H145.29L213.2 187.26V162.19L213.13 162.15L138.14 301.02H105.47L216.6 95.28L342.95 313.02H388.41V0H48.41Z" fill="black"/>
<path d="M25.06 391.15C23.27 391.89 19.52 392.63 16.5 392.63C11.7 392.63 8.07001 391.28 5.36001 388.51C1.79001 385.06 -0.11999 378.91 0.0100098 371.77C0.19001 356.69 8.75001 350.41 17.68 350.41C20.82 350.41 23.1 351.03 24.39 351.64L23.04 358.6C21.81 357.98 20.27 357.68 18.3 357.68C12.76 357.68 8.39001 361.43 8.39001 372.21C8.39001 382.18 12.27 385.81 16.08 385.81C16.82 385.81 17.37 385.75 17.68 385.63V375.6H13.93V369.01H25.07V391.15H25.06Z" fill="black"/>
<path d="M67.53 374.04H58.1101V385.24H68.7601V392.26H50.05V350.77H68.09V357.79H58.12V367.33H67.5401V374.04H67.53Z" fill="black"/>
<path d="M117.77 370.78C117.77 386.41 112.23 392.75 104.35 392.75C94.93 392.75 91.24 382.78 91.24 371.39C91.24 360.06 95.73 350.28 104.97 350.28C114.94 350.28 117.77 361.3 117.77 370.78ZM99.61 371.52C99.61 380.94 101.4 385.74 104.66 385.74C108.11 385.74 109.4 379.58 109.4 371.15C109.4 363.89 108.29 357.3 104.6 357.3C101.39 357.3 99.61 362.59 99.61 371.52Z" fill="black"/>
<path d="M167.2 377.74C166.95 373.8 166.71 368.45 166.77 364.01H166.65C165.91 368.44 164.8 373.55 164 376.75L160.37 391.58H154.71L151.26 377C150.46 373.68 149.35 368.51 148.68 364.01H148.56C148.44 368.5 148.13 373.74 147.94 377.86L147.2 392.26H140.31L143.26 350.77H151.82L155.14 365.79C156.25 371.02 157.29 375.64 158.03 380.32H158.21C158.83 375.7 159.75 371.02 160.8 365.79L164.12 350.77H172.61L175.13 392.26H167.93L167.2 377.74Z" fill="black"/>
<path d="M217.5 374.04H208.08V385.24H218.73V392.26H200.02V350.77H218.06V357.79H208.09V367.33H217.51V374.04H217.5Z" fill="black"/>
<path d="M247.72 358.22H240.4V350.77H263.17V358.22H255.78V392.26H247.72V358.22Z" fill="black"/>
<path d="M286.38 351.39C288.9 350.9 292.1 350.59 295.18 350.59C299.61 350.59 303.61 351.27 306.26 353.67C308.78 355.95 309.58 358.72 309.58 362.29C309.58 366.72 307.36 370.72 303.18 372.63V372.75C306.01 373.92 307.43 376.5 308.23 381C309.03 385.62 310.14 390.73 310.88 392.26H302.45C301.9 391.09 300.97 386.9 300.36 382.29C299.62 377.18 298.33 375.7 295.68 375.7H294.45V392.26H286.39V351.39H286.38ZM294.45 369.49H295.93C299.44 369.49 301.41 366.66 301.41 363.03C301.41 359.46 299.99 357 296.42 356.87C295.68 356.87 294.88 356.93 294.45 357.12V369.49Z" fill="black"/>
<path d="M342.34 350.77V392.26H334.28V350.77H342.34Z" fill="black"/>
<path d="M388.39 391.65C387.22 392.2 384.94 392.63 382.17 392.63C371.52 392.63 366.47 383.95 366.47 372.13C366.47 356.5 375.15 350.4 383.21 350.4C386.04 350.4 388.01 350.95 388.81 351.51L387.46 358.28C386.54 357.85 385.49 357.48 383.71 357.48C379.15 357.48 375.03 361.42 375.03 371.7C375.03 381.61 378.78 385.49 383.71 385.49C385.06 385.49 386.6 385.18 387.59 384.87L388.39 391.65Z" fill="black"/>
</svg>
