<svg xmlns="http://www.w3.org/2000/svg" xmlns:xlink="http://www.w3.org/1999/xlink" width="14" height="15" viewBox="0 0 14 15">
  <defs>
    <style>
      .cls-1 {
        fill-rule: evenodd;
        filter: url(#filter);
      }
    </style>
    <filter id="filter" x="1049" y="3396" width="14" height="15" filterUnits="userSpaceOnUse">
      <feFlood result="flood" flood-color="#fff"/>
      <feComposite result="composite" operator="in" in2="SourceGraphic"/>
      <feBlend result="blend" in2="SourceGraphic"/>
    </filter>
  </defs>
  <path id="Forma_1" data-name="Forma 1" class="cls-1" d="M1060.08,3405.23a2.914,2.914,0,0,0-2.45,1.33l-3.12-1.76a2.767,2.767,0,0,0,.19-2.13l3.25-1.84a2.865,2.865,0,1,0-.78-1.95,2.827,2.827,0,0,0,.13.83l-3.25,1.84a2.885,2.885,0,1,0-.37,4.23l-0.01.03,3.53,1.99c-0.01.11-.03,0.21-0.03,0.31A2.915,2.915,0,1,0,1060.08,3405.23Zm0-8.08a1.73,1.73,0,1,1-1.75,1.73A1.75,1.75,0,0,1,1060.08,3397.15Zm-8.16,8.08a1.73,1.73,0,1,1,1.75-1.73A1.741,1.741,0,0,1,1051.92,3405.23Zm8.16,4.61a1.73,1.73,0,1,1,1.76-1.73A1.741,1.741,0,0,1,1060.08,3409.84Z" transform="translate(-1049 -3396)"/>
</svg>
